<svg id="Layer_1" data-name="Layer 1" xmlns="http://www.w3.org/2000/svg" viewBox="0 0 797.92 157.03"><defs><style>.cls-1{fill:#292c31;}</style></defs><path class="cls-1" d="M570.12,83.64V72.08a.31.31,0,0,0-.31-.31H546.17a.33.33,0,0,1-.33-.33h0V57a.33.33,0,0,0-.33-.33H534a.33.33,0,0,0-.33.33h0V98.8a.33.33,0,0,0,.33.33h11.48a.33.33,0,0,0,.33-.33h0V84.22a.32.32,0,0,1,.3-.33h23.67A.31.31,0,0,0,570.12,83.64Z"/><rect class="cls-1" x="545.84" y="45.52" width="30.34" height="11.13" rx="0.33"/><rect class="cls-1" x="545.84" y="99.13" width="30.34" height="12.14" rx="0.33"/><path class="cls-1" d="M527.67,111.25a.33.33,0,0,0,.3-.48l-13.62-27a.31.31,0,0,1,.13-.42l0,0c6.4-2.54,10.09-9.74,10.09-17,0-17.5-13.4-20.76-18.89-20.76H478.81a.34.34,0,0,0-.34.34h0v65.08a.34.34,0,0,0,.34.33H490.1a.33.33,0,0,0,.33-.33h0V87.68a.33.33,0,0,1,.33-.33h11.37a.31.31,0,0,1,.29.19l11.68,23.53a.33.33,0,0,0,.3.18Zm-26-35.85h-10.9a.33.33,0,0,1-.33-.34h0V57.8a.32.32,0,0,1,.33-.33h12.91c6.95,0,8.87,5.39,8.87,9.16C512.55,72.6,508.3,75.4,501.65,75.4Z"/><path class="cls-1" d="M437.92,44.28l-19.87,6.45a.43.43,0,0,0-.17.12L405.6,67.76a.31.31,0,0,0-.06.19V88.84a.36.36,0,0,0,.06.2l12.28,16.9a.3.3,0,0,0,.17.12l19.87,6.46a.34.34,0,0,0,.2,0L458,106.06a.28.28,0,0,0,.16-.12L470.43,89a.31.31,0,0,0,.07-.2V68a.26.26,0,0,0-.07-.19L458.15,50.85a.4.4,0,0,0-.16-.12l-19.87-6.45A.34.34,0,0,0,437.92,44.28Zm21,41L451,96.15a.31.31,0,0,1-.16.12l-12.76,4.15a.34.34,0,0,1-.2,0l-12.76-4.15a.3.3,0,0,1-.17-.12L417.11,85.3a.37.37,0,0,1-.07-.2V71.69a.32.32,0,0,1,.07-.19L425,60.64a.43.43,0,0,1,.17-.12l12.76-4.14a.34.34,0,0,1,.2,0l12.76,4.14a.48.48,0,0,1,.16.12l7.89,10.86a.31.31,0,0,1,.06.19V85.1A.36.36,0,0,1,458.93,85.3Z"/><path class="cls-1" d="M394.9,92a.35.35,0,0,0-.47,0c-3.08,3-7.28,8.26-15.68,8.26-11.75,0-20.85-7.65-20.85-21.73,0-14.6,8.82-22,20.85-22a22,22,0,0,1,15.68,7,.32.32,0,0,0,.45,0l0,0,7.7-8.36a.27.27,0,0,0,0-.36,34.12,34.12,0,0,0-24.54-10.57c-19.67,0-32.85,14.37-32.85,34.27,0,21.47,16.65,34.07,33.11,34.07,10.54,0,19.82-6.61,24.66-11.71a.29.29,0,0,0,0-.37Z"/><path class="cls-1" d="M324.61,71.83H295.94a.33.33,0,0,1-.33-.33h0V45.85a.33.33,0,0,0-.33-.33H283.8a.33.33,0,0,0-.33.33h0v65.09a.33.33,0,0,0,.33.33h11.48a.33.33,0,0,0,.33-.33h0V84.3a.33.33,0,0,1,.33-.33h28.67a.33.33,0,0,1,.33.33h0v26.64a.33.33,0,0,0,.33.33h11.48a.33.33,0,0,0,.33-.33h0V45.85a.33.33,0,0,0-.33-.33H325.27a.33.33,0,0,0-.33.33h0V71.49a.32.32,0,0,1-.31.34Z"/><path class="cls-1" d="M183.32,45.72,163.2,88.81a.31.31,0,0,0,0,.13v22a.33.33,0,0,0,.33.33H175a.33.33,0,0,0,.33-.33V93.39a.33.33,0,0,1,.33-.33h29.69a.33.33,0,0,1,.33.33v17.55a.33.33,0,0,0,.33.33h11.47a.33.33,0,0,0,.33-.33V89a.4.4,0,0,0,0-.15L197.2,45.71a.35.35,0,0,0-.3-.19H183.62A.33.33,0,0,0,183.32,45.72Zm-3.1,34.74L190,59.36a.33.33,0,0,1,.6,0l9.74,21.1a.33.33,0,0,1-.3.47H180.52A.33.33,0,0,1,180.22,80.46Z"/><path class="cls-1" d="M151.65,79.29s0,0,.06,0l4.14-12.75a.34.34,0,0,0,0-.2l-4.13-12.7a.3.3,0,0,0-.12-.17l-11-7.83a.31.31,0,0,0-.19-.06l-32.2,0a.34.34,0,0,0-.33.34v65.08a.33.33,0,0,0,.33.33h10.33a.33.33,0,0,0,.33-.33V87.69a.33.33,0,0,1,.33-.33l12.42-.14a.33.33,0,0,1,.3.19l11.73,23.68a.33.33,0,0,0,.3.18h11.92a.33.33,0,0,0,.3-.48L143.45,85.55a.34.34,0,0,1,.1-.42Zm-32.77-3.64V56.58a.33.33,0,0,1,.33-.33h17.73a.31.31,0,0,1,.19.06l5,3.61a.31.31,0,0,1,.12.16l1.9,5.85a.34.34,0,0,1,0,.2L142.21,72a.3.3,0,0,1-.12.17l-5.36,3.77a.35.35,0,0,1-.19.06H119.21A.33.33,0,0,1,118.88,75.65Z"/><path class="cls-1" d="M84.85,107.77v3.17a.33.33,0,0,0,.33.33H96.66a.33.33,0,0,0,.33-.33V75.19a.33.33,0,0,0-.33-.33H70a.33.33,0,0,0-.33.33V86.66A.33.33,0,0,0,70,87H84.52a.33.33,0,0,1,.33.33v6.49a.34.34,0,0,1-.16.29L75.5,99.72a.33.33,0,0,1-.17,0h-10a.33.33,0,0,1-.17,0l-8.89-5.44a.43.43,0,0,1-.11-.12L50.8,84.87a.29.29,0,0,1,0-.16V72.09a.33.33,0,0,1,0-.17l5.35-9.29a.43.43,0,0,1,.11-.12l8.89-5.43a.34.34,0,0,1,.17,0H75.85a.37.37,0,0,1,.18,0l8.09,5.31.08.06,3.59,4.37a.34.34,0,0,0,.46.05L97,60a.32.32,0,0,0,.06-.46l-4.2-5.38a.22.22,0,0,0-.09-.07l-13.5-8.52a.28.28,0,0,0-.18-.06h-17a.41.41,0,0,0-.18,0L47.65,54.3a.32.32,0,0,0-.12.11L39.3,69a.3.3,0,0,0,0,.16V87.65a.34.34,0,0,0,0,.17l8.21,14.51.06.12,14.34,8.77a.41.41,0,0,0,.18,0H78.57a.34.34,0,0,0,.17,0l5.86-3.59A.17.17,0,0,1,84.85,107.77Z"/><path class="cls-1" d="M239.79,57.81V75.09a.33.33,0,0,0,.33.33h23.22a.33.33,0,0,1,.33.33V87h0a.33.33,0,0,1-.33.33H240.12a.33.33,0,0,0-.33.33v23.24h0a.33.33,0,0,1-.33.33h-11.3a.33.33,0,0,1-.33-.33V45.85a.33.33,0,0,1,.33-.33h35.18a.33.33,0,0,1,.33.33v11.3a.33.33,0,0,1-.33.33H240.12A.33.33,0,0,0,239.79,57.81Z"/><rect class="cls-1" x="263.67" y="57.48" width="11.96" height="17.94" rx="0.33"/><path class="cls-1" d="M628,79.9a.37.37,0,0,0,.08-.54l-5.38-6.94a.36.36,0,0,0-.52-.08l-4.66,3.41V62.42h6.71a.36.36,0,0,0,.38-.38V53a.36.36,0,0,0-.38-.38h-6.71v-13a.36.36,0,0,0-.38-.38H607.6a.37.37,0,0,0-.38.38v13h-8.78a.35.35,0,0,0-.37.38v9a.34.34,0,0,0,.37.38h8.78V79.67h-8.76a.33.33,0,0,0-.37.37v9a.35.35,0,0,0,.37.37h8.76v14.44c0,1.79-.89,2.69-3,2.69a31.05,31.05,0,0,1-5.14-.45.37.37,0,0,0-.45.42l1.34,9.9a.33.33,0,0,0,.3.32,39.61,39.61,0,0,0,5.93.49c7.45,0,11.31-3.86,11.31-10.86V87.55Z"/><path class="cls-1" d="M648.88,77.53a.36.36,0,0,0,.49.27l8.9-3.16a.34.34,0,0,0,.24-.41A130.61,130.61,0,0,0,652,52.75a.34.34,0,0,0-.45-.2l-8.45,2.65a.35.35,0,0,0-.23.49C645.4,61.94,647.71,71.82,648.88,77.53Z"/><path class="cls-1" d="M758.44,102.82c-10.39-4.53-20.06-12.92-24.69-22.09h23.91a.36.36,0,0,0,.38-.38V70.87a.36.36,0,0,0-.38-.38H725.81V60h27.45a.35.35,0,0,0,.38-.37V50.13a.35.35,0,0,0-.38-.37H725.81V39.63a.35.35,0,0,0-.37-.38h-9.85a.35.35,0,0,0-.37.38V49.76h-27a.35.35,0,0,0-.37.37v9.49a.35.35,0,0,0,.37.37h27v10.5H683.81a.36.36,0,0,0-.37.38v9.48a.36.36,0,0,0,.37.38h24.7v6.55a.38.38,0,0,0,.38.38h6.33v28.87a.34.34,0,0,0,.37.38h9.85a.35.35,0,0,0,.37-.38V85.37c3.78,10.69,15.93,22.35,26.64,26.84a.35.35,0,0,0,.46-.15l5.7-8.7A.36.36,0,0,0,758.44,102.82Z"/><path class="cls-1" d="M668.62,94.48l4.23-12.81a.75.75,0,0,0,0-.24V40.54a.37.37,0,0,0-.38-.37h-9.66a.36.36,0,0,0-.38.37V80L657,95.65l-18.56,13.51a.38.38,0,0,0-.08.53l5.75,7.92a.37.37,0,0,0,.53.08L663,104l10.41,12.92a.38.38,0,0,0,.54.06l7.33-6.25a.36.36,0,0,0,0-.52Z"/><path class="cls-1" d="M640,105.78V96.1h9.41a.37.37,0,0,0,.37-.38v-9.3a.37.37,0,0,0-.37-.38H640V43.78a.36.36,0,0,0-.38-.38h-9.3a.36.36,0,0,0-.38.38V96.1h-6.45a.36.36,0,0,0-.37.37v9.31a.35.35,0,0,0,.37.37h16.13A.37.37,0,0,0,640,105.78Z"/><path class="cls-1" d="M708.14,87.66h-9.31a.35.35,0,0,0-.37.37v12.19a.36.36,0,0,0,.37.38h9.31a.37.37,0,0,0,.37-.38V88A.36.36,0,0,0,708.14,87.66Z"/><path class="cls-1" d="M698.08,100.59H687a.35.35,0,0,0-.37.37v9.31a.36.36,0,0,0,.37.37h11.1a.36.36,0,0,0,.37-.37V101A.35.35,0,0,0,698.08,100.59Z"/></svg>